Kodato-Black.ufo
<glyph name="H" format="1">
  <advance width="1788"/>
  <unicode hex="0048"/>
  <outline>
    <contour>
      <point x="1149" y="1595" type="curve" smooth="yes"/>
      <point x="1491" y="1595" type="line" smooth="yes"/>
      <point x="1610" y="1595"/>
      <point x="1622" y="1486"/>
      <point x="1627" y="1439" type="curve" smooth="yes"/>
      <point x="1648" y="1245"/>
      <point x="1648" y="1069"/>
      <point x="1648" y="810" type="curve" smooth="yes"/>
      <point x="1648" y="548"/>
      <point x="1648" y="363"/>
      <point x="1627" y="156" type="curve" smooth="yes"/>
      <point x="1622" y="108"/>
      <point x="1617" y="0"/>
      <point x="1491" y="0" type="curve" smooth="yes"/>
      <point x="1149" y="0" type="line" smooth="yes"/>
      <point x="1014" y="0"/>
      <point x="1013" y="108"/>
      <point x="1013" y="156" type="curve" smooth="yes"/>
      <point x="1013" y="608" type="line" smooth="yes"/>
      <point x="1013" y="646"/>
      <point x="1011" y="648"/>
      <point x="973" y="648" type="curve" smooth="yes"/>
      <point x="774" y="648" type="line" smooth="yes"/>
      <point x="736" y="648"/>
      <point x="734" y="646"/>
      <point x="734" y="608" type="curve" smooth="yes"/>
      <point x="734" y="156" type="line" smooth="yes"/>
      <point x="734" y="108"/>
      <point x="731" y="0"/>
      <point x="598" y="0" type="curve" smooth="yes"/>
      <point x="256" y="0" type="line" smooth="yes"/>
      <point x="138" y="0"/>
      <point x="124" y="109"/>
      <point x="120" y="156" type="curve" smooth="yes"/>
      <point x="101" y="385"/>
      <point x="100" y="543"/>
      <point x="100" y="790" type="curve" smooth="yes"/>
      <point x="100" y="1025"/>
      <point x="100" y="1188"/>
      <point x="120" y="1439" type="curve" smooth="yes"/>
      <point x="124" y="1485"/>
      <point x="129" y="1595"/>
      <point x="256" y="1595" type="curve" smooth="yes"/>
      <point x="598" y="1595" type="line" smooth="yes"/>
      <point x="733" y="1595"/>
      <point x="734" y="1487"/>
      <point x="734" y="1439" type="curve" smooth="yes"/>
      <point x="734" y="990" type="line" smooth="yes"/>
      <point x="734" y="952"/>
      <point x="736" y="948"/>
      <point x="774" y="948" type="curve" smooth="yes"/>
      <point x="973" y="948" type="line" smooth="yes"/>
      <point x="1011" y="948"/>
      <point x="1013" y="952"/>
      <point x="1013" y="990" type="curve" smooth="yes"/>
      <point x="1013" y="1439" type="line" smooth="yes"/>
      <point x="1013" y="1487"/>
      <point x="1013" y="1595"/>
    </contour>
    <contour>
      <point x="894" y="1595" type="move" name="top"/>
    </contour>
    <contour>
      <point x="894" y="798" type="move" name="center"/>
    </contour>
  </outline>
</glyph>
<glyph name="a" format="1">
  <advance width="1464"/>
  <unicode hex="0061"/>
  <outline>
    <contour>
      <point x="494.0" y="-27.0" type="curve" smooth="yes"/>
      <point x="660.0" y="-27.0"/>
      <point x="768.0" y="33.0"/>
      <point x="809.0" y="114.0" type="curve" smooth="yes"/>
      <point x="820.0" y="136.0"/>
      <point x="827.0" y="145.0"/>
      <point x="831.0" y="145.0" type="curve" smooth="yes"/>
      <point x="838.0" y="145.0"/>
      <point x="840.0" y="124.0"/>
      <point x="848.0" y="104.0" type="curve" smooth="yes"/>
      <point x="862.0" y="69.0" type="line" smooth="yes"/>
      <point x="881.0" y="24.0"/>
      <point x="915.0" y="1.0"/>
      <point x="963.0" y="1.0" type="curve" smooth="yes"/>
      <point x="1332.0" y="1.0" type="line" smooth="yes"/>
      <point x="1374.0" y="1.0"/>
      <point x="1397.0" y="23.0"/>
      <point x="1397.0" y="61.0" type="curve" smooth="yes"/>
      <point x="1397.0" y="65.0"/>
      <point x="1397.0" y="71.0"/>
      <point x="1396.0" y="76.0" type="curve" smooth="yes"/>
      <point x="1387.0" y="131.0"/>
      <point x="1382.0" y="192.0"/>
      <point x="1381.0" y="257.0" type="curve"/>
      <point x="1381.0" y="886.0" type="line" smooth="yes"/>
      <point x="1381.0" y="1211.0"/>
      <point x="1070.0" y="1328.0"/>
      <point x="729.0" y="1328.0" type="curve" smooth="yes"/>
      <point x="532.0" y="1328.0"/>
      <point x="324.0" y="1289.0"/>
      <point x="161.0" y="1228.0" type="curve"/>
      <point x="134.0" y="1219.0"/>
      <point x="123.0" y="1186.0"/>
      <point x="123.0" y="1147.0" type="curve" smooth="yes"/>
      <point x="123.0" y="1063.0"/>
      <point x="173.0" y="946.0"/>
      <point x="230.0" y="946.0" type="curve" smooth="yes"/>
      <point x="234.0" y="946.0"/>
      <point x="238.0" y="946.0"/>
      <point x="243.0" y="948.0" type="curve"/>
      <point x="359.0" y="984.0"/>
      <point x="487.0" y="1005.0"/>
      <point x="592.0" y="1005.0" type="curve" smooth="yes"/>
      <point x="718.0" y="1005.0"/>
      <point x="811.0" y="975.0"/>
      <point x="811.0" y="905.0" type="curve" smooth="yes"/>
      <point x="811" y="767" type="line" smooth="yes"/>
      <point x="730" y="767" type="line" smooth="yes"/>
      <point x="237" y="767"/>
      <point x="73.0" y="777.0"/>
      <point x="73.0" y="388.0" type="curve" smooth="yes"/>
      <point x="73.0" y="107.0"/>
      <point x="209.0" y="-27.0"/>
    </contour>
    <contour>
      <point x="725" y="227" type="curve" smooth="yes"/>
      <point x="620" y="227"/>
      <point x="608" y="271"/>
      <point x="608" y="438" type="curve" smooth="yes"/>
      <point x="608" y="586"/>
      <point x="646" y="624"/>
      <point x="705" y="624" type="curve" smooth="yes"/>
      <point x="771" y="624" type="line" smooth="yes"/>
      <point x="809" y="624"/>
      <point x="811" y="622"/>
      <point x="811" y="584" type="curve" smooth="yes"/>
      <point x="811.0" y="317.0" type="line" smooth="yes"/>
      <point x="811.0" y="279.0"/>
      <point x="788" y="227"/>
    </contour>
    <contour>
      <point x="732.0" y="1300.0" type="move" name="top"/>
    </contour>
    <contour>
      <point x="1318.0" y="10.0" type="move" name="ogonek"/>
    </contour>
  </outline>
</glyph>
<glyph name="b" format="1">
  <advance width="1563"/>
  <unicode hex="0062"/>
  <outline>
    <contour>
      <point x="1035" y="-27" type="curve" smooth="yes"/>
      <point x="1313" y="-27"/>
      <point x="1424" y="109"/>
      <point x="1455" y="377" type="curve" smooth="yes"/>
      <point x="1468" y="486"/>
      <point x="1474" y="566"/>
      <point x="1474" y="650" type="curve" smooth="yes"/>
      <point x="1474" y="732"/>
      <point x="1468" y="819"/>
      <point x="1455" y="940" type="curve" smooth="yes"/>
      <point x="1427" y="1201"/>
      <point x="1307" y="1327"/>
      <point x="1038" y="1327" type="curve" smooth="yes"/>
      <point x="917" y="1327"/>
      <point x="824" y="1304"/>
      <point x="758" y="1255" type="curve" smooth="yes"/>
      <point x="750" y="1249"/>
      <point x="742" y="1247"/>
      <point x="736" y="1247" type="curve" smooth="yes"/>
      <point x="723" y="1247"/>
      <point x="714" y="1258"/>
      <point x="714" y="1278" type="curve" smooth="yes"/>
      <point x="714" y="1484" type="line" smooth="yes"/>
      <point x="714" y="1706"/>
      <point x="580" y="1710"/>
      <point x="488" y="1710" type="curve" smooth="yes"/>
      <point x="359" y="1710" type="line" smooth="yes"/>
      <point x="269" y="1710"/>
      <point x="155" y="1692"/>
      <point x="143" y="1534" type="curve" smooth="yes"/>
      <point x="136" y="1438"/>
      <point x="128" y="1124"/>
      <point x="128" y="768" type="curve" smooth="yes"/>
      <point x="128" y="534"/>
      <point x="132" y="440"/>
      <point x="143" y="226" type="curve" smooth="yes"/>
      <point x="145" y="179"/>
      <point x="151" y="0"/>
      <point x="339" y="0" type="curve" smooth="yes"/>
      <point x="564" y="0" type="line" smooth="yes"/>
      <point x="634" y="0"/>
      <point x="669" y="19"/>
      <point x="681" y="56" type="curve"/>
      <point x="681" y="56"/>
      <point x="697.0" y="83.0"/>
      <point x="710" y="83" type="curve" smooth="yes"/>
      <point x="719" y="83"/>
      <point x="729" y="79"/>
      <point x="739" y="70" type="curve" smooth="yes"/>
      <point x="807" y="8"/>
      <point x="916" y="-27"/>
    </contour>
    <contour>
      <point x="804" y="330" type="curve"/>
      <point x="752" y="330"/>
      <point x="720" y="344"/>
      <point x="714" y="351" type="curve"/>
      <point x="714" y="974" type="line"/>
      <point x="720" y="979"/>
      <point x="744" y="1005"/>
      <point x="804" y="1005" type="curve"/>
      <point x="870" y="1005"/>
      <point x="910" y="1011"/>
      <point x="910" y="698" type="curve" smooth="yes"/>
      <point x="910" y="650" type="line" smooth="yes"/>
      <point x="910" y="338"/>
      <point x="854" y="330"/>
    </contour>
  </outline>
</glyph>
<glyph name="d" format="1">
  <advance width="1478"/>
  <unicode hex="0064"/>
  <outline>
    <contour>
      <point x="502" y="-27" type="curve" smooth="yes"/>
      <point x="621.837" y="-27"/>
      <point x="728.873" y="8.70684"/>
      <point x="797.672" y="70.1668" type="curve" smooth="yes"/>
      <point x="822.997" y="92.7907"/>
      <point x="845.892" y="86.604"/>
      <point x="856.375" y="54.3037" type="curve" smooth="yes"/>
      <point x="868.592" y="18.6101"/>
      <point x="894.82" y="-3.55271e-15"/>
      <point x="932.927" y="0" type="curve" smooth="yes"/>
      <point x="1318.11" y="0" type="line" smooth="yes"/>
      <point x="1365.6" y="0"/>
      <point x="1394" y="28.397"/>
      <point x="1394" y="75.8873" type="curve" smooth="yes"/>
      <point x="1394.0" y="854.99865" type="line"/>
      <point x="1394" y="1634.11" type="line" smooth="yes"/>
      <point x="1394" y="1681.6"/>
      <point x="1365.6" y="1710"/>
      <point x="1318.11" y="1710" type="curve" smooth="yes"/>
      <point x="898.887" y="1710" type="line" smooth="yes"/>
      <point x="851.397" y="1710"/>
      <point x="823" y="1681.6"/>
      <point x="823" y="1634.11" type="curve" smooth="yes"/>
      <point x="823" y="1277.53" type="line" smooth="yes"/>
      <point x="823" y="1247.7"/>
      <point x="803.181" y="1237.7"/>
      <point x="779.181" y="1255.41" type="curve" smooth="yes"/>
      <point x="712.859" y="1304.35"/>
      <point x="620.667" y="1327"/>
      <point x="500" y="1327" type="curve" smooth="yes"/>
      <point x="228" y="1327"/>
      <point x="85" y="1203"/>
      <point x="85" y="940" type="curve" smooth="yes"/>
      <point x="85" y="940"/>
      <point x="85.0" y="377.0"/>
      <point x="85" y="377" type="curve" smooth="yes"/>
      <point x="85" y="106"/>
      <point x="224" y="-27"/>
    </contour>
    <contour>
      <point x="738.5" y="199.0" type="curve"/>
      <point x="677.0" y="199.0"/>
      <point x="655" y="221.301"/>
      <point x="655" y="258.596" type="curve" smooth="yes"/>
      <point x="655" y="258.596"/>
      <point x="655.0" y="1045.4"/>
      <point x="655" y="1045.4" type="curve" smooth="yes"/>
      <point x="655" y="1082.7"/>
      <point x="677.0" y="1105.0"/>
      <point x="738.5" y="1105.0" type="curve"/>
      <point x="800.0" y="1105.0"/>
      <point x="822" y="1082.7"/>
      <point x="822" y="1045.4" type="curve" smooth="yes"/>
      <point x="822" y="258.596" type="line" smooth="yes"/>
      <point x="822" y="221.301"/>
      <point x="800.0" y="199.0"/>
    </contour>
    <contour>
      <point x="739" y="650" type="move" name="center"/>
    </contour>
  </outline>
</glyph>
<glyph name="e" format="1">
  <advance width="1513"/>
  <unicode hex="0065"/>
  <outline>
    <contour>
      <point x="783" y="-27" type="curve" smooth="yes"/>
      <point x="1129" y="-27"/>
      <point x="1299" y="88"/>
      <point x="1335" y="112" type="curve" smooth="yes"/>
      <point x="1354" y="125"/>
      <point x="1363" y="150"/>
      <point x="1363" y="181" type="curve" smooth="yes"/>
      <point x="1363" y="265"/>
      <point x="1299" y="388"/>
      <point x="1227" y="388" type="curve" smooth="yes"/>
      <point x="1218" y="388"/>
      <point x="1209" y="386"/>
      <point x="1200" y="382" type="curve" smooth="yes"/>
      <point x="1128" y="351"/>
      <point x="979" y="299"/>
      <point x="826" y="299" type="curve" smooth="yes"/>
      <point x="742" y="299"/>
      <point x="655" y="327"/>
      <point x="655" y="517" type="curve" smooth="yes"/>
      <point x="655" y="564" type="line" smooth="yes"/>
      <point x="655" y="602"/>
      <point x="657" y="604"/>
      <point x="695" y="604" type="curve" smooth="yes"/>
      <point x="1302" y="604" type="line" smooth="yes"/>
      <point x="1350" y="604"/>
      <point x="1370" y="632"/>
      <point x="1378" y="680" type="curve" smooth="yes"/>
      <point x="1385" y="723"/>
      <point x="1383" y="782"/>
      <point x="1377" y="835" type="curve" smooth="yes"/>
      <point x="1363" y="969"/>
      <point x="1361" y="1327"/>
      <point x="781" y="1327" type="curve" smooth="yes"/>
      <point x="295" y="1327"/>
      <point x="158" y="1138"/>
      <point x="120" y="873" type="curve" smooth="yes"/>
      <point x="110" y="801"/>
      <point x="103" y="724"/>
      <point x="103" y="644" type="curve" smooth="yes"/>
      <point x="103" y="568"/>
      <point x="109" y="490"/>
      <point x="124" y="413" type="curve" smooth="yes"/>
      <point x="177" y="137"/>
      <point x="346" y="-27"/>
    </contour>
    <contour>
      <point x="695" y="777" type="line" smooth="yes"/>
      <point x="657" y="777"/>
      <point x="655" y="779"/>
      <point x="655" y="817" type="curve" smooth="yes"/>
      <point x="655" y="911" type="line" smooth="yes"/>
      <point x="655" y="1029"/>
      <point x="733" y="1029"/>
      <point x="772" y="1029" type="curve"/>
      <point x="812" y="1029"/>
      <point x="872" y="1019"/>
      <point x="872" y="911" type="curve" smooth="yes"/>
      <point x="872" y="817" type="line" smooth="yes"/>
      <point x="872" y="779"/>
      <point x="870" y="777"/>
      <point x="832" y="777" type="curve" smooth="yes"/>
    </contour>
    <contour>
      <point x="757" y="1300" type="move" name="top"/>
    </contour>
    <contour>
      <point x="757" y="0" type="move" name="bottom"/>
    </contour>
    <contour>
      <point x="1362" y="10" type="move" name="ogonek"/>
    </contour>
  </outline>
</glyph>
<glyph name="g" format="1">
  <advance width="1553"/>
  <unicode hex="0067"/>
  <outline>
    <contour>
      <point x="715" y="-372" type="curve" smooth="yes"/>
      <point x="1207" y="-372"/>
      <point x="1391" y="-281"/>
      <point x="1434" y="136" type="curve" smooth="yes"/>
      <point x="1446" y="251"/>
      <point x="1451" y="413"/>
      <point x="1451" y="587" type="curve" smooth="yes"/>
      <point x="1451" y="803"/>
      <point x="1443" y="1037"/>
      <point x="1434" y="1223" type="curve" smooth="yes"/>
      <point x="1432" y="1270"/>
      <point x="1406" y="1299"/>
      <point x="1358" y="1299" type="curve" smooth="yes"/>
      <point x="961" y="1299" type="line" smooth="yes"/>
      <point x="923.0" y="1299.0"/>
      <point x="906" y="1245"/>
      <point x="906" y="1245" type="curve"/>
      <point x="901" y="1211"/>
      <point x="895" y="1198"/>
      <point x="887" y="1198" type="curve" smooth="yes"/>
      <point x="878" y="1198"/>
      <point x="867" y="1212"/>
      <point x="848" y="1230" type="curve" smooth="yes"/>
      <point x="780" y="1293"/>
      <point x="677" y="1326"/>
      <point x="548" y="1327" type="curve"/>
      <point x="271" y="1327"/>
      <point x="142" y="1194"/>
      <point x="111" y="927" type="curve" smooth="yes"/>
      <point x="105" y="875"/>
      <point x="102" y="790"/>
      <point x="102" y="705" type="curve" smooth="yes"/>
      <point x="102" y="620"/>
      <point x="105" y="535"/>
      <point x="111" y="482" type="curve" smooth="yes"/>
      <point x="141" y="216"/>
      <point x="274" y="91"/>
      <point x="545" y="91" type="curve" smooth="yes"/>
      <point x="657" y="91"/>
      <point x="764" y="113"/>
      <point x="833" y="164" type="curve" smooth="yes"/>
      <point x="846" y="173"/>
      <point x="857" y="186"/>
      <point x="865" y="186" type="curve" smooth="yes"/>
      <point x="872" y="186"/>
      <point x="876" y="175"/>
      <point x="876" y="142" type="curve" smooth="yes"/>
      <point x="876.0" y="-11.7610484627"/>
      <point x="821.53519012" y="-60.0"/>
      <point x="601" y="-60" type="curve" smooth="yes"/>
      <point x="521" y="-60"/>
      <point x="437" y="-48"/>
      <point x="369" y="-36" type="curve" smooth="yes"/>
      <point x="362" y="-35"/>
      <point x="355" y="-34"/>
      <point x="349" y="-34" type="curve" smooth="yes"/>
      <point x="311" y="-34"/>
      <point x="288" y="-56"/>
      <point x="280" y="-98" type="curve" smooth="yes"/>
      <point x="280" y="-98"/>
      <point x="250.0" y="-251.0"/>
      <point x="250" y="-257" type="curve" smooth="yes"/>
      <point x="250" y="-294"/>
      <point x="273" y="-321"/>
      <point x="312" y="-330" type="curve" smooth="yes"/>
      <point x="421" y="-354"/>
      <point x="553" y="-372"/>
    </contour>
    <contour>
      <point x="764.0" y="316.0" type="curve"/>
      <point x="687" y="316"/>
      <point x="655.0" y="338.0"/>
      <point x="655" y="376" type="curve" smooth="yes"/>
      <point x="655.0" y="710.0" type="line"/>
      <point x="655" y="1044" type="line" smooth="yes"/>
      <point x="655.0" y="1082.0"/>
      <point x="687" y="1104"/>
      <point x="764.0" y="1104.0" type="curve"/>
      <point x="838" y="1104"/>
      <point x="863.0" y="1082.0"/>
      <point x="863" y="1044" type="curve" smooth="yes"/>
      <point x="863" y="376" type="line" smooth="yes"/>
      <point x="863.0" y="338.0"/>
      <point x="830" y="316"/>
    </contour>
    <contour>
      <point x="777" y="1300" type="move" name="top"/>
    </contour>
  </outline>
</glyph>
<glyph name="h" format="1">
  <advance width="1591"/>
  <unicode hex="0068"/>
  <outline>
    <contour>
      <point x="638" y="0" type="line" smooth="yes"/>
      <point x="686" y="0"/>
      <point x="714" y="28"/>
      <point x="714" y="76" type="curve" smooth="yes"/>
      <point x="714" y="76"/>
      <point x="727.035714286" y="786.928571429"/>
      <point x="722" y="1079" type="curve"/>
      <point x="732" y="1096"/>
      <point x="754" y="1105"/>
      <point x="804" y="1105" type="curve"/>
      <point x="874" y="1105"/>
      <point x="893" y="1083"/>
      <point x="893" y="1045" type="curve" smooth="yes"/>
      <point x="893" y="76" type="line" smooth="yes"/>
      <point x="893" y="28"/>
      <point x="921" y="0"/>
      <point x="969" y="0" type="curve" smooth="yes"/>
      <point x="1388" y="0" type="line" smooth="yes"/>
      <point x="1436" y="0"/>
      <point x="1461" y="28"/>
      <point x="1464" y="76" type="curve" smooth="yes"/>
      <point x="1473" y="214"/>
      <point x="1477" y="370"/>
      <point x="1477" y="516" type="curve" smooth="yes"/>
      <point x="1477" y="684"/>
      <point x="1472" y="841"/>
      <point x="1464" y="944" type="curve" smooth="yes"/>
      <point x="1444" y="1195"/>
      <point x="1346" y="1326"/>
      <point x="1073" y="1327" type="curve" smooth="yes"/>
      <point x="950" y="1327"/>
      <point x="793" y="1295"/>
      <point x="729" y="1231" type="curve" smooth="yes"/>
      <point x="726" y="1228"/>
      <point x="724" y="1227"/>
      <point x="722" y="1227" type="curve" smooth="yes"/>
      <point x="721" y="1227"/>
      <point x="720" y="1228"/>
      <point x="720" y="1230" type="curve"/>
      <point x="718" y="1375"/>
      <point x="715" y="1512"/>
      <point x="710" y="1634" type="curve" smooth="yes"/>
      <point x="708" y="1681"/>
      <point x="682" y="1710"/>
      <point x="634" y="1710" type="curve" smooth="yes"/>
      <point x="215" y="1710" type="line" smooth="yes"/>
      <point x="167" y="1710"/>
      <point x="141" y="1679"/>
      <point x="139" y="1634" type="curve" smooth="yes"/>
      <point x="130" y="1409"/>
      <point x="126" y="1167"/>
      <point x="126" y="913" type="curve" smooth="yes"/>
      <point x="126" y="648"/>
      <point x="131" y="365"/>
      <point x="139" y="76" type="curve" smooth="yes"/>
      <point x="140" y="28"/>
      <point x="167" y="0"/>
      <point x="215" y="0" type="curve" smooth="yes"/>
    </contour>
    <contour>
      <point x="796" y="1300" type="move" name="top"/>
    </contour>
    <contour>
      <point x="796" y="650" type="move" name="center"/>
    </contour>
  </outline>
</glyph>
<glyph name="i" format="1">
  <advance width="759"/>
  <unicode hex="0069"/>
  <outline>
    <contour>
      <point x="230" y="1709" type="line" smooth="yes"/>
      <point x="182" y="1709"/>
      <point x="104" y="1707"/>
      <point x="104" y="1593" type="curve" smooth="yes"/>
      <point x="104" y="1541" type="line" smooth="yes"/>
      <point x="104" y="1427"/>
      <point x="182" y="1425"/>
      <point x="230" y="1425" type="curve" smooth="yes"/>
      <point x="549" y="1425" type="line" smooth="yes"/>
      <point x="597" y="1425"/>
      <point x="675" y="1426"/>
      <point x="675" y="1541" type="curve" smooth="yes"/>
      <point x="675" y="1593" type="line" smooth="yes"/>
      <point x="675" y="1708"/>
      <point x="597" y="1709"/>
      <point x="549" y="1709" type="curve" smooth="yes"/>
    </contour>
    <contour>
      <point x="665" y="1144" type="line" smooth="yes"/>
      <point x="662" y="1299"/>
      <point x="567" y="1300"/>
      <point x="519" y="1300" type="curve" smooth="yes"/>
      <point x="260" y="1300" type="line" smooth="yes"/>
      <point x="212" y="1300"/>
      <point x="117" y="1297"/>
      <point x="114" y="1144" type="curve" smooth="yes"/>
      <point x="104.0" y="649.99865" type="line"/>
      <point x="114" y="156" type="line" smooth="yes"/>
      <point x="117" y="0"/>
      <point x="212" y="0"/>
      <point x="260" y="0" type="curve" smooth="yes"/>
      <point x="519" y="0" type="line" smooth="yes"/>
      <point x="567" y="0"/>
      <point x="662" y="0"/>
      <point x="665" y="156" type="curve" smooth="yes"/>
      <point x="675.0" y="649.99865" type="line"/>
    </contour>
  </outline>
</glyph>
<glyph name="n" format="1">
  <advance width="1710"/>
  <unicode hex="006E"/>
  <outline>
    <contour>
      <point x="586" y="0" type="line" smooth="yes"/>
      <point x="714" y="0"/>
      <point x="772" y="78"/>
      <point x="772" y="176" type="curve" smooth="yes"/>
      <point x="772" y="891" type="line"/>
      <point x="782" y="904"/>
      <point x="801" y="932"/>
      <point x="872" y="932" type="curve" smooth="yes"/>
      <point x="945" y="932"/>
      <point x="971" y="901"/>
      <point x="971" y="836" type="curve" smooth="yes"/>
      <point x="971" y="176" type="line" smooth="yes"/>
      <point x="971" y="77"/>
      <point x="1011" y="0"/>
      <point x="1157" y="0" type="curve" smooth="yes"/>
      <point x="1368" y="0" type="line" smooth="yes"/>
      <point x="1506" y="0"/>
      <point x="1530" y="67"/>
      <point x="1541" y="186" type="curve" smooth="yes"/>
      <point x="1553" y="313"/>
      <point x="1557" y="419"/>
      <point x="1557" y="536" type="curve" smooth="yes"/>
      <point x="1557" y="693"/>
      <point x="1550" y="834"/>
      <point x="1541" y="944" type="curve" smooth="yes"/>
      <point x="1521" y="1195"/>
      <point x="1412" y="1327"/>
      <point x="1139" y="1327" type="curve" smooth="yes"/>
      <point x="847" y="1327"/>
      <point x="754" y="1184"/>
      <point x="727" y="1184" type="curve" smooth="yes"/>
      <point x="717" y="1184"/>
      <point x="713" y="1192"/>
      <point x="700" y="1215" type="curve" smooth="yes"/>
      <point x="677" y="1258"/>
      <point x="641" y="1300"/>
      <point x="543" y="1300" type="curve" smooth="yes"/>
      <point x="387" y="1300" type="line" smooth="yes"/>
      <point x="279" y="1300"/>
      <point x="210" y="1237"/>
      <point x="201" y="1104" type="curve" smooth="yes"/>
      <point x="189" y="926"/>
      <point x="186" y="862"/>
      <point x="186" y="672" type="curve" smooth="yes"/>
      <point x="186" y="481"/>
      <point x="188" y="384"/>
      <point x="201" y="176" type="curve" smooth="yes"/>
      <point x="208" y="68"/>
      <point x="259" y="0"/>
      <point x="387" y="0" type="curve" smooth="yes"/>
    </contour>
    <contour>
      <point x="848" y="1300" type="move" name="top"/>
    </contour>
    <contour>
      <point x="848" y="0" type="move" name="bottom"/>
    </contour>
  </outline>
</glyph>
<glyph name="o" format="1">
  <advance width="1608"/>
  <unicode hex="006F"/>
  <outline>
    <contour>
      <point x="801" y="311" type="curve"/>
      <point x="744" y="311"/>
      <point x="695" y="316"/>
      <point x="695" y="473" type="curve" smooth="yes"/>
      <point x="695" y="849" type="line" smooth="yes"/>
      <point x="695" y="983"/>
      <point x="747" y="989"/>
      <point x="801" y="989" type="curve"/>
      <point x="860" y="989"/>
      <point x="905" y="983"/>
      <point x="905" y="849" type="curve" smooth="yes"/>
      <point x="905" y="475" type="line" smooth="yes"/>
      <point x="905" y="317"/>
      <point x="855" y="311"/>
    </contour>
    <contour>
      <point x="1110" y="-27"/>
      <point x="1375" y="8"/>
      <point x="1445" y="372" type="curve" smooth="yes"/>
      <point x="1454" y="421"/>
      <point x="1459" y="558"/>
      <point x="1459" y="654" type="curve" smooth="yes"/>
      <point x="1459" y="749"/>
      <point x="1454" y="883"/>
      <point x="1445" y="932" type="curve" smooth="yes"/>
      <point x="1379" y="1272"/>
      <point x="1125" y="1327"/>
      <point x="806" y="1327" type="curve" smooth="yes"/>
      <point x="509" y="1327"/>
      <point x="205" y="1273"/>
      <point x="157" y="933" type="curve" smooth="yes"/>
      <point x="150" y="881"/>
      <point x="146" y="744"/>
      <point x="146" y="648" type="curve" smooth="yes"/>
      <point x="146" y="553"/>
      <point x="150" y="419"/>
      <point x="157" y="373" type="curve" smooth="yes"/>
      <point x="217" y="13"/>
      <point x="487" y="-27"/>
      <point x="805" y="-27" type="curve" smooth="yes"/>
    </contour>
    <contour>
      <point x="805" y="1300" type="move" name="top"/>
    </contour>
  </outline>
</glyph>
<glyph name="p" format="1">
  <advance width="1476"/>
  <unicode hex="0070"/>
  <outline>
    <contour>
      <point x="175" y="-408" type="curve" smooth="yes"/>
      <point x="594" y="-408" type="line" smooth="yes"/>
      <point x="642" y="-408"/>
      <point x="670" y="-380"/>
      <point x="670" y="-332" type="curve" smooth="yes"/>
      <point x="670" y="24" type="line" smooth="yes"/>
      <point x="670" y="54"/>
      <point x="689" y="63"/>
      <point x="713" y="45" type="curve" smooth="yes"/>
      <point x="779" y="-4"/>
      <point x="877" y="-27"/>
      <point x="989" y="-27" type="curve" smooth="yes"/>
      <point x="1263" y="-27"/>
      <point x="1409" y="99"/>
      <point x="1409" y="365" type="curve" smooth="yes"/>
      <point x="1409.0" y="645.5" type="line"/>
      <point x="1409" y="926" type="line" smooth="yes"/>
      <point x="1409" y="1198"/>
      <point x="1262" y="1327"/>
      <point x="986" y="1327" type="curve" smooth="yes"/>
      <point x="860" y="1327"/>
      <point x="741" y="1293"/>
      <point x="666" y="1230" type="curve" smooth="yes"/>
      <point x="640" y="1208"/>
      <point x="617" y="1214"/>
      <point x="607" y="1247" type="curve" smooth="yes"/>
      <point x="594" y="1282"/>
      <point x="568" y="1300"/>
      <point x="531" y="1300" type="curve" smooth="yes"/>
      <point x="175" y="1300" type="line" smooth="yes"/>
      <point x="127" y="1300"/>
      <point x="99" y="1272"/>
      <point x="99" y="1224" type="curve" smooth="yes"/>
      <point x="99.0" y="446.0" type="line"/>
      <point x="99" y="-332" type="line" smooth="yes"/>
      <point x="99" y="-380"/>
      <point x="127" y="-408"/>
    </contour>
    <contour>
      <point x="754" y="199" type="curve"/>
      <point x="698" y="199"/>
      <point x="670" y="221"/>
      <point x="670" y="259" type="curve" smooth="yes"/>
      <point x="670" y="1045" type="line" smooth="yes"/>
      <point x="670" y="1083"/>
      <point x="697" y="1105"/>
      <point x="754" y="1105" type="curve"/>
      <point x="812" y="1105"/>
      <point x="837" y="1083"/>
      <point x="837" y="1045" type="curve" smooth="yes"/>
      <point x="837.0" y="652.0" type="line"/>
      <point x="837" y="259" type="line" smooth="yes"/>
      <point x="837" y="221"/>
      <point x="810" y="199"/>
    </contour>
  </outline>
</glyph>
<glyph name="u" format="1">
  <advance width="1579"/>
  <unicode hex="0075"/>
  <outline>
    <component base="n" xScale="-1.0" xyScale="1.5959455979e-16" yxScale="-1.5959455979e-16" yScale="-1.0" xOffset="1604" yOffset="1300"/>
    <contour>
      <point x="789" y="1300" type="move" name="top"/>
    </contour>
    <contour>
      <point x="1419" y="10" type="move" name="ogonek"/>
    </contour>
  </outline>
</glyph>
<glyph name="guillemotright" format="1">
  <advance width="1770"/>
  <unicode hex="00BB"/>
  <outline>
    <contour>
      <point x="906" y="775" type="curve" smooth="yes"/>
      <point x="905" y="846"/>
      <point x="874" y="919"/>
      <point x="816" y="961" type="curve" smooth="yes"/>
      <point x="290" y="1341" type="line" smooth="yes"/>
      <point x="266" y="1358"/>
      <point x="242" y="1364"/>
      <point x="224" y="1364" type="curve" smooth="yes"/>
      <point x="178" y="1364"/>
      <point x="144" y="1326"/>
      <point x="144" y="1278" type="curve" smooth="yes"/>
      <point x="144" y="1256"/>
      <point x="150" y="1233"/>
      <point x="168" y="1209" type="curve" smooth="yes"/>
      <point x="465.548" y="824.148" type="line" smooth="yes"/>
      <point x="489.336" y="793.38"/>
      <point x="489.336" y="760.62"/>
      <point x="465.548" y="729.852" type="curve" smooth="yes"/>
      <point x="168" y="345" type="line" smooth="yes"/>
      <point x="151" y="323"/>
      <point x="146" y="300"/>
      <point x="146" y="277" type="curve" smooth="yes"/>
      <point x="146" y="230"/>
      <point x="180" y="190"/>
      <point x="226" y="190" type="curve" smooth="yes"/>
      <point x="245" y="190"/>
      <point x="267" y="196"/>
      <point x="290" y="213" type="curve" smooth="yes"/>
      <point x="816" y="593" type="line" smooth="yes"/>
      <point x="876" y="636"/>
      <point x="906" y="706"/>
    </contour>
    <contour>
      <point x="1642" y="775" type="curve" smooth="yes"/>
      <point x="1641" y="846"/>
      <point x="1610" y="919"/>
      <point x="1552" y="961" type="curve" smooth="yes"/>
      <point x="1025" y="1341" type="line" smooth="yes"/>
      <point x="1001" y="1358"/>
      <point x="979" y="1364"/>
      <point x="960" y="1364" type="curve" smooth="yes"/>
      <point x="914" y="1364"/>
      <point x="879" y="1326"/>
      <point x="879" y="1278" type="curve" smooth="yes"/>
      <point x="879" y="1256"/>
      <point x="886" y="1233"/>
      <point x="904" y="1209" type="curve" smooth="yes"/>
      <point x="1201.55" y="824.148" type="line" smooth="yes"/>
      <point x="1225.34" y="793.38"/>
      <point x="1225.34" y="760.62"/>
      <point x="1201.55" y="729.852" type="curve" smooth="yes"/>
      <point x="904" y="345" type="line" smooth="yes"/>
      <point x="887" y="323"/>
      <point x="881" y="300"/>
      <point x="881" y="277" type="curve" smooth="yes"/>
      <point x="881" y="230"/>
      <point x="916" y="190"/>
      <point x="962" y="190" type="curve" smooth="yes"/>
      <point x="981" y="190"/>
      <point x="1004" y="197"/>
      <point x="1025" y="213" type="curve" smooth="yes"/>
      <point x="1552" y="593" type="line" smooth="yes"/>
      <point x="1612" y="636"/>
      <point x="1642" y="706"/>
    </contour>
  </outline>
</glyph>
<glyph name="ring" format="1">
  <advance width="805"/>
  <unicode hex="02DA"/>
  <outline>
    <contour>
      <point x="524" y="430" type="curve" smooth="yes"/>
      <point x="524" y="363"/>
      <point x="470" y="309"/>
      <point x="403" y="309" type="curve" smooth="yes"/>
      <point x="335" y="309"/>
      <point x="282" y="362"/>
      <point x="282" y="430" type="curve" smooth="yes"/>
      <point x="282" y="500"/>
      <point x="333" y="552"/>
      <point x="403" y="552" type="curve" smooth="yes"/>
      <point x="471" y="552"/>
      <point x="524" y="499"/>
    </contour>
    <contour>
      <point x="98" y="305" type="curve" smooth="yes"/>
      <point x="146" y="197"/>
      <point x="252" y="110"/>
      <point x="405" y="110" type="curve" smooth="yes"/>
      <point x="451" y="110"/>
      <point x="494" y="118"/>
      <point x="534" y="135" type="curve" smooth="yes"/>
      <point x="643" y="180"/>
      <point x="738" y="280"/>
      <point x="738" y="430" type="curve" smooth="yes"/>
      <point x="738" y="475"/>
      <point x="729" y="517"/>
      <point x="712" y="556" type="curve" smooth="yes"/>
      <point x="664" y="664"/>
      <point x="558" y="752"/>
      <point x="405" y="752" type="curve" smooth="yes"/>
      <point x="359" y="752"/>
      <point x="316" y="744"/>
      <point x="275" y="727" type="curve" smooth="yes"/>
      <point x="165" y="682"/>
      <point x="72" y="581"/>
      <point x="72" y="430" type="curve" smooth="yes"/>
      <point x="72" y="386"/>
      <point x="81" y="344"/>
    </contour>
    <contour>
      <point x="405" y="1300" type="move" name="_top"/>
    </contour>
  </outline>
</glyph>
<glyph name="uni0326" format="1">
  <advance width="226"/>
  <unicode hex="0326"/>
  <outline>
    <contour>
      <point x="0" y="0" type="move" name="_bottom"/>
    </contour>
  </outline>
</glyph>
<glyph name="afii10070" format="1">
  <advance width="1513"/>
  <unicode hex="0435"/>
  <outline>
    <component base="e"/>
    <contour>
      <point x="757" y="1300" type="move" name="top"/>
    </contour>
  </outline>
</glyph>
<glyph name="afii10076" format="1">
  <advance width="1725"/>
  <unicode hex="043A"/>
  <outline>
    <contour>
      <point x="1510" y="0" type="line" smooth="yes"/>
      <point x="1549" y="0"/>
      <point x="1567" y="25"/>
      <point x="1551" y="56" type="curve" smooth="yes"/>
      <point x="1250" y="644" type="line" smooth="yes"/>
      <point x="1235" y="674"/>
      <point x="1235" y="703"/>
      <point x="1250" y="733" type="curve" smooth="yes"/>
      <point x="1513" y="1245" type="line" smooth="yes"/>
      <point x="1529" y="1276"/>
      <point x="1511" y="1302"/>
      <point x="1472" y="1302" type="curve" smooth="yes"/>
      <point x="1042" y="1302" type="line" smooth="yes"/>
      <point x="996" y="1302"/>
      <point x="964" y="1282"/>
      <point x="948" y="1244" type="curve" smooth="yes"/>
      <point x="785" y="859" type="line" smooth="yes"/>
      <point x="772" y="829"/>
      <point x="754" y="778"/>
      <point x="745" y="747" type="curve" smooth="yes"/>
      <point x="732" y="703" type="line" smooth="yes"/>
      <point x="729" y="694"/>
      <point x="721" y="690"/>
      <point x="711" y="691" type="curve" smooth="yes"/>
      <point x="710" y="691" type="line" smooth="yes"/>
      <point x="700" y="692"/>
      <point x="694" y="699"/>
      <point x="695" y="708" type="curve" smooth="yes"/>
      <point x="703" y="811" type="line"/>
      <point x="703" y="1240" type="line" smooth="yes"/>
      <point x="703" y="1279"/>
      <point x="677" y="1302"/>
      <point x="633" y="1302" type="curve" smooth="yes"/>
      <point x="216" y="1302" type="line" smooth="yes"/>
      <point x="172" y="1302"/>
      <point x="146" y="1279"/>
      <point x="146" y="1240" type="curve" smooth="yes"/>
      <point x="146" y="62" type="line" smooth="yes"/>
      <point x="146" y="23"/>
      <point x="172" y="0"/>
      <point x="216" y="0" type="curve" smooth="yes"/>
      <point x="633" y="0" type="line" smooth="yes"/>
      <point x="677" y="0"/>
      <point x="703" y="23"/>
      <point x="703" y="62" type="curve" smooth="yes"/>
      <point x="703" y="401" type="line"/>
      <point x="696" y="503" type="line" smooth="yes"/>
      <point x="695" y="524"/>
      <point x="704" y="540"/>
      <point x="724" y="551" type="curve" smooth="yes"/>
      <point x="725" y="552" type="line" smooth="yes"/>
      <point x="743" y="562"/>
      <point x="760" y="557"/>
      <point x="767" y="539" type="curve" smooth="yes"/>
      <point x="969" y="58" type="line" smooth="yes"/>
      <point x="985" y="20"/>
      <point x="1017" y="0"/>
      <point x="1063" y="0" type="curve" smooth="yes"/>
    </contour>
    <contour>
      <point x="863" y="1300" type="move" name="top"/>
    </contour>
  </outline>
</glyph>
<glyph name="afii10085" format="1">
  <advance width="1342"/>
  <unicode hex="0443"/>
  <outline>
    <component base="y"/>
    <contour>
      <point x="671" y="1300" type="move" name="top"/>
    </contour>
  </outline>
</glyph>
<glyph name="afii10103" format="1">
  <advance width="759"/>
  <unicode hex="0456"/>
  <outline>
    <component base="i"/>
    <contour>
      <point x="380" y="1300" type="move" name="top"/>
    </contour>
  </outline>
</glyph>
<glyph name="E_E" format="1">
  <advance width="2024"/>
  <outline>
    <contour>
      <point x="1012" y="1300" type="move" name="top"/>
    </contour>
    <contour>
      <point x="1012" y="0" type="move" name="bottom"/>
    </contour>
    <contour>
      <point x="1822" y="10" type="move" name="ogonek"/>
    </contour>
  </outline>
</glyph>
